<?xml version="1.0" encoding="UTF-8"?>
<svg xmlns="http://www.w3.org/2000/svg" xmlns:xlink="http://www.w3.org/1999/xlink" width="84px" height="50px" viewBox="0 0 84 50" version="1.1">
<g id="surface1">
<path style=" stroke:none;fill-rule:nonzero;fill:rgb(56.078434%,16.862746%,15.294118%);fill-opacity:1;" d="M 6.582031 1.246094 C 6.625 1.246094 6.664062 1.246094 6.703125 1.246094 C 6.835938 1.246094 6.964844 1.246094 7.097656 1.246094 C 7.191406 1.246094 7.285156 1.246094 7.382812 1.246094 C 7.585938 1.246094 7.785156 1.246094 7.988281 1.246094 C 8.296875 1.25 8.605469 1.25 8.910156 1.25 C 9.496094 1.25 10.078125 1.253906 10.660156 1.253906 C 10.980469 1.253906 11.300781 1.257812 11.617188 1.257812 C 12.214844 1.257812 12.808594 1.261719 13.40625 1.261719 C 14.007812 1.265625 14.613281 1.265625 15.214844 1.265625 C 15.273438 1.265625 15.273438 1.265625 15.332031 1.265625 C 15.488281 1.269531 15.640625 1.269531 15.796875 1.269531 C 17.683594 1.273438 19.566406 1.277344 21.453125 1.285156 C 22.0625 1.285156 22.675781 1.289062 23.289062 1.289062 C 23.464844 1.289062 23.640625 1.289062 23.8125 1.289062 C 23.859375 1.289062 23.902344 1.289062 23.945312 1.292969 C 26.949219 1.300781 29.953125 1.308594 32.953125 1.316406 C 33.191406 1.316406 33.425781 1.316406 33.660156 1.316406 C 33.707031 1.316406 33.753906 1.316406 33.800781 1.316406 C 34.273438 1.320312 34.746094 1.320312 35.222656 1.324219 C 35.316406 1.324219 35.410156 1.324219 35.503906 1.324219 C 38.539062 1.332031 41.574219 1.339844 44.609375 1.347656 C 46.792969 1.355469 48.976562 1.359375 51.160156 1.367188 C 51.230469 1.367188 51.230469 1.367188 51.296875 1.367188 C 52.292969 1.371094 53.285156 1.371094 54.277344 1.375 C 54.675781 1.375 55.078125 1.378906 55.476562 1.378906 C 55.542969 1.378906 55.542969 1.378906 55.609375 1.378906 C 57.003906 1.382812 58.398438 1.386719 59.792969 1.390625 C 61.203125 1.394531 62.613281 1.398438 64.023438 1.402344 C 64.21875 1.402344 64.417969 1.402344 64.613281 1.402344 C 64.671875 1.402344 64.671875 1.402344 64.730469 1.402344 C 65.257812 1.40625 65.785156 1.40625 66.308594 1.40625 C 67.828125 1.410156 69.347656 1.417969 70.867188 1.421875 C 70.996094 1.421875 71.125 1.421875 71.257812 1.425781 C 71.304688 1.425781 71.304688 1.425781 71.355469 1.425781 C 71.878906 1.425781 72.402344 1.429688 72.921875 1.429688 C 73.574219 1.429688 74.226562 1.433594 74.878906 1.4375 C 75.253906 1.4375 75.628906 1.441406 76.003906 1.441406 C 76.257812 1.441406 76.511719 1.441406 76.761719 1.445312 C 76.910156 1.445312 77.054688 1.445312 77.199219 1.445312 C 78.554688 1.445312 79.679688 1.714844 80.679688 2.6875 C 81.132812 3.144531 81.457031 3.675781 81.664062 4.285156 C 81.679688 4.332031 81.679688 4.332031 81.695312 4.378906 C 81.875 4.949219 81.882812 5.523438 81.878906 6.113281 C 81.878906 6.199219 81.878906 6.285156 81.878906 6.375 C 81.878906 6.613281 81.878906 6.851562 81.875 7.09375 C 81.875 7.355469 81.875 7.621094 81.875 7.886719 C 81.875 8.359375 81.871094 8.832031 81.871094 9.304688 C 81.871094 9.832031 81.867188 10.363281 81.867188 10.890625 C 81.867188 10.925781 81.867188 10.957031 81.867188 10.992188 C 81.867188 11.132812 81.867188 11.273438 81.867188 11.414062 C 81.863281 13.261719 81.859375 15.109375 81.851562 16.957031 C 81.851562 17.433594 81.851562 17.910156 81.847656 18.390625 C 81.84375 19.886719 81.839844 21.386719 81.835938 22.886719 C 81.835938 22.929688 81.835938 22.976562 81.835938 23.023438 C 81.835938 23.210938 81.835938 23.398438 81.835938 23.582031 C 81.835938 23.722656 81.832031 23.863281 81.832031 24.003906 C 81.832031 24.070312 81.832031 24.070312 81.832031 24.144531 C 81.828125 25.648438 81.824219 27.152344 81.820312 28.65625 C 81.816406 30.261719 81.8125 31.867188 81.808594 33.472656 C 81.808594 33.652344 81.808594 33.828125 81.808594 34.003906 C 81.804688 34.046875 81.804688 34.089844 81.804688 34.136719 C 81.804688 34.828125 81.800781 35.519531 81.800781 36.210938 C 81.800781 36.90625 81.796875 37.601562 81.796875 38.296875 C 81.792969 38.671875 81.792969 39.046875 81.792969 39.421875 C 81.789062 40.3125 81.785156 41.203125 81.78125 42.09375 C 81.78125 42.164062 81.78125 42.230469 81.78125 42.296875 C 81.777344 42.742188 81.773438 43.1875 81.765625 43.632812 C 81.765625 43.761719 81.765625 43.890625 81.765625 44.015625 C 81.761719 44.191406 81.761719 44.371094 81.757812 44.546875 C 81.757812 44.621094 81.757812 44.621094 81.757812 44.699219 C 81.738281 45.75 81.3125 46.683594 80.625 47.457031 C 80.601562 47.484375 80.578125 47.515625 80.550781 47.542969 C 79.867188 48.289062 78.820312 48.691406 77.828125 48.75 C 77.535156 48.757812 77.238281 48.753906 76.945312 48.753906 C 76.851562 48.753906 76.761719 48.753906 76.671875 48.753906 C 76.476562 48.753906 76.285156 48.753906 76.089844 48.753906 C 75.789062 48.75 75.488281 48.75 75.1875 48.75 C 74.605469 48.75 74.023438 48.746094 73.445312 48.746094 C 73.125 48.746094 72.808594 48.742188 72.488281 48.742188 C 71.894531 48.742188 71.300781 48.738281 70.707031 48.738281 C 70.105469 48.734375 69.503906 48.734375 68.902344 48.734375 C 68.863281 48.734375 68.824219 48.734375 68.785156 48.734375 C 68.628906 48.730469 68.476562 48.730469 68.320312 48.730469 C 66.4375 48.726562 64.558594 48.722656 62.679688 48.714844 C 62.070312 48.714844 61.457031 48.710938 60.847656 48.710938 C 57.632812 48.703125 54.417969 48.691406 51.203125 48.683594 C 50.96875 48.683594 50.734375 48.683594 50.496094 48.683594 C 50.453125 48.683594 50.40625 48.683594 50.355469 48.683594 C 49.886719 48.679688 49.414062 48.679688 48.941406 48.675781 C 48.847656 48.675781 48.75 48.675781 48.65625 48.675781 C 45.628906 48.667969 42.601562 48.660156 39.574219 48.652344 C 37.394531 48.644531 35.214844 48.640625 33.039062 48.632812 C 32.992188 48.632812 32.949219 48.632812 32.902344 48.632812 C 31.910156 48.628906 30.921875 48.628906 29.929688 48.625 C 29.53125 48.625 29.132812 48.621094 28.730469 48.621094 C 28.6875 48.621094 28.644531 48.621094 28.601562 48.621094 C 27.210938 48.617188 25.820312 48.613281 24.429688 48.609375 C 23.019531 48.605469 21.613281 48.601562 20.207031 48.597656 C 20.007812 48.597656 19.8125 48.597656 19.613281 48.597656 C 19.578125 48.597656 19.539062 48.597656 19.496094 48.597656 C 18.972656 48.59375 18.449219 48.59375 17.925781 48.59375 C 16.207031 48.585938 14.492188 48.582031 12.777344 48.574219 C 12.425781 48.574219 12.078125 48.574219 11.726562 48.570312 C 10.90625 48.566406 10.085938 48.566406 9.265625 48.5625 C 8.914062 48.558594 8.558594 48.558594 8.207031 48.554688 C 7.910156 48.554688 7.613281 48.554688 7.316406 48.550781 C 7.164062 48.550781 7.015625 48.550781 6.863281 48.550781 C 5.453125 48.546875 4.34375 48.269531 3.296875 47.257812 C 2.523438 46.457031 2.160156 45.371094 2.164062 44.269531 C 2.164062 44.214844 2.164062 44.160156 2.164062 44.101562 C 2.164062 43.949219 2.164062 43.796875 2.164062 43.644531 C 2.164062 43.472656 2.164062 43.304688 2.164062 43.132812 C 2.164062 42.78125 2.167969 42.429688 2.167969 42.082031 C 2.167969 41.78125 2.167969 41.480469 2.167969 41.179688 C 2.167969 39.855469 2.171875 38.527344 2.175781 37.203125 C 2.175781 36.765625 2.175781 36.324219 2.175781 35.886719 C 2.183594 31.867188 2.195312 27.851562 2.207031 23.832031 C 2.207031 23.472656 2.207031 23.113281 2.207031 22.757812 C 2.207031 22.664062 2.207031 22.574219 2.207031 22.484375 C 2.210938 21.023438 2.214844 19.558594 2.21875 18.09375 C 2.222656 16.527344 2.226562 14.960938 2.230469 13.394531 C 2.234375 13.222656 2.234375 13.050781 2.234375 12.882812 C 2.234375 12.839844 2.234375 12.796875 2.234375 12.753906 C 2.234375 12.078125 2.238281 11.402344 2.238281 10.730469 C 2.238281 10.054688 2.242188 9.382812 2.242188 8.707031 C 2.246094 8.308594 2.246094 7.910156 2.246094 7.511719 C 2.246094 7.246094 2.25 6.980469 2.25 6.714844 C 2.25 6.5625 2.25 6.410156 2.25 6.257812 C 2.25 4.769531 2.460938 3.542969 3.511719 2.425781 C 4.34375 1.617188 5.4375 1.238281 6.582031 1.246094 Z M 6.582031 1.246094 "/>
<path style=" stroke:none;fill-rule:nonzero;fill:rgb(99.215686%,70.19608%,0.784314%);fill-opacity:1;" d="M 10.929688 13.269531 C 11.007812 13.269531 11.085938 13.269531 11.164062 13.269531 C 11.378906 13.265625 11.597656 13.269531 11.8125 13.269531 C 12.042969 13.269531 12.277344 13.269531 12.507812 13.269531 C 12.964844 13.265625 13.417969 13.265625 13.875 13.265625 C 14.246094 13.269531 14.613281 13.269531 14.984375 13.269531 C 15.039062 13.269531 15.089844 13.269531 15.144531 13.269531 C 15.25 13.269531 15.359375 13.269531 15.464844 13.265625 C 16.46875 13.265625 17.472656 13.269531 18.476562 13.269531 C 19.335938 13.269531 20.199219 13.269531 21.058594 13.269531 C 22.058594 13.265625 23.058594 13.265625 24.058594 13.269531 C 24.164062 13.269531 24.269531 13.269531 24.378906 13.269531 C 24.457031 13.269531 24.457031 13.269531 24.535156 13.269531 C 24.90625 13.269531 25.277344 13.269531 25.644531 13.265625 C 26.097656 13.265625 26.546875 13.265625 26.996094 13.269531 C 27.226562 13.269531 27.457031 13.269531 27.6875 13.269531 C 27.898438 13.265625 28.105469 13.269531 28.316406 13.269531 C 28.394531 13.269531 28.46875 13.269531 28.546875 13.269531 C 29.121094 13.265625 29.621094 13.324219 30.058594 13.738281 C 30.378906 14.089844 30.433594 14.5 30.429688 14.964844 C 30.429688 15.039062 30.429688 15.039062 30.429688 15.117188 C 30.429688 15.285156 30.429688 15.453125 30.429688 15.621094 C 30.429688 15.742188 30.429688 15.859375 30.429688 15.980469 C 30.433594 16.273438 30.433594 16.566406 30.433594 16.863281 C 30.429688 17.101562 30.429688 17.339844 30.433594 17.578125 C 30.433594 17.609375 30.433594 17.644531 30.433594 17.679688 C 30.433594 17.75 30.433594 17.816406 30.433594 17.886719 C 30.433594 18.535156 30.433594 19.179688 30.433594 19.828125 C 30.429688 20.417969 30.433594 21.007812 30.433594 21.601562 C 30.433594 22.207031 30.433594 22.816406 30.433594 23.425781 C 30.433594 23.765625 30.433594 24.105469 30.433594 24.445312 C 30.4375 24.738281 30.4375 25.027344 30.433594 25.316406 C 30.433594 25.464844 30.433594 25.613281 30.433594 25.761719 C 30.4375 25.921875 30.433594 26.082031 30.433594 26.242188 C 30.433594 26.289062 30.433594 26.335938 30.4375 26.382812 C 30.429688 26.875 30.269531 27.207031 29.933594 27.558594 C 29.699219 27.785156 29.449219 27.933594 29.117188 27.933594 C 29.070312 27.933594 29.027344 27.933594 28.980469 27.933594 C 28.929688 27.933594 28.878906 27.933594 28.828125 27.933594 C 28.746094 27.933594 28.746094 27.933594 28.667969 27.933594 C 28.519531 27.933594 28.371094 27.933594 28.222656 27.933594 C 28.0625 27.933594 27.902344 27.933594 27.742188 27.933594 C 27.429688 27.933594 27.113281 27.933594 26.800781 27.933594 C 26.429688 27.933594 26.058594 27.933594 25.6875 27.933594 C 25.019531 27.933594 24.347656 27.929688 23.679688 27.929688 C 23.042969 27.929688 22.40625 27.929688 21.769531 27.929688 C 21.691406 27.929688 21.613281 27.929688 21.535156 27.929688 C 21.5 27.929688 21.460938 27.929688 21.421875 27.929688 C 21.363281 27.929688 21.363281 27.929688 21.304688 27.929688 C 21.246094 27.929688 21.246094 27.929688 21.1875 27.929688 C 19.703125 27.929688 18.222656 27.929688 16.738281 27.925781 C 16.628906 27.925781 16.519531 27.925781 16.410156 27.921875 C 16.339844 27.921875 16.265625 27.921875 16.195312 27.921875 C 15.671875 27.921875 15.152344 27.921875 14.628906 27.921875 C 14.0625 27.921875 13.496094 27.917969 12.929688 27.917969 C 12.644531 27.917969 12.359375 27.914062 12.074219 27.914062 C 11.816406 27.914062 11.554688 27.914062 11.296875 27.914062 C 11.203125 27.914062 11.109375 27.914062 11.015625 27.914062 C 10.46875 27.914062 10.007812 27.914062 9.582031 27.519531 C 9.5 27.433594 9.433594 27.347656 9.367188 27.253906 C 9.339844 27.214844 9.339844 27.214844 9.3125 27.171875 C 9.105469 26.847656 9.140625 26.453125 9.136719 26.082031 C 9.136719 26.03125 9.136719 25.984375 9.136719 25.933594 C 9.136719 25.765625 9.136719 25.601562 9.136719 25.433594 C 9.136719 25.347656 9.136719 25.257812 9.136719 25.167969 C 9.132812 24.75 9.132812 24.328125 9.128906 23.90625 C 9.128906 23.875 9.128906 23.839844 9.128906 23.804688 C 9.128906 23.144531 9.128906 22.484375 9.125 21.824219 C 9.125 21.679688 9.125 21.535156 9.125 21.386719 C 9.125 21.351562 9.125 21.316406 9.125 21.277344 C 9.125 20.695312 9.121094 20.113281 9.121094 19.527344 C 9.117188 18.925781 9.117188 18.328125 9.113281 17.726562 C 9.113281 17.390625 9.113281 17.054688 9.113281 16.71875 C 9.109375 16.429688 9.109375 16.144531 9.109375 15.855469 C 9.109375 15.710938 9.109375 15.566406 9.109375 15.417969 C 9.097656 14.183594 9.097656 14.183594 9.550781 13.679688 C 9.632812 13.597656 9.710938 13.53125 9.8125 13.46875 C 9.855469 13.441406 9.902344 13.410156 9.949219 13.378906 C 10.25 13.230469 10.601562 13.265625 10.929688 13.269531 Z M 10.929688 13.269531 "/>
<path style=" stroke:none;fill-rule:nonzero;fill:rgb(98.823529%,36.862746%,0%);fill-opacity:1;" d="M 65.800781 32.515625 C 65.859375 32.566406 65.859375 32.566406 65.917969 32.617188 C 66.023438 32.710938 66.023438 32.710938 66.195312 32.695312 C 66.296875 32.628906 66.296875 32.628906 66.394531 32.539062 C 66.652344 32.320312 66.925781 32.148438 67.21875 31.980469 C 67.253906 31.960938 67.289062 31.9375 67.328125 31.917969 C 68.570312 31.246094 70.152344 31.179688 71.488281 31.566406 C 72.367188 31.832031 73.117188 32.246094 73.769531 32.898438 C 73.828125 32.957031 73.886719 33.015625 73.949219 33.074219 C 74.324219 33.4375 74.585938 33.851562 74.855469 34.300781 C 74.871094 34.328125 74.890625 34.355469 74.910156 34.382812 C 75.589844 35.457031 75.660156 37.082031 75.398438 38.28125 C 75.15625 39.304688 75.15625 39.304688 74.898438 39.5625 C 74.867188 39.640625 74.867188 39.640625 74.835938 39.714844 C 74.773438 39.859375 74.738281 39.910156 74.632812 40.007812 C 74.585938 40.082031 74.542969 40.15625 74.5 40.230469 C 74.308594 40.53125 74.085938 40.789062 73.832031 41.035156 C 73.785156 41.085938 73.785156 41.085938 73.734375 41.136719 C 73.65625 41.214844 73.65625 41.214844 73.566406 41.214844 C 73.550781 41.257812 73.539062 41.300781 73.523438 41.347656 C 72.355469 42.386719 70.84375 42.726562 69.320312 42.652344 C 68.976562 42.625 68.65625 42.5625 68.328125 42.460938 C 68.292969 42.453125 68.257812 42.441406 68.222656 42.429688 C 67.449219 42.179688 66.6875 41.796875 66.109375 41.214844 C 65.957031 41.226562 65.871094 41.296875 65.753906 41.394531 C 65.316406 41.746094 64.84375 41.992188 64.328125 42.203125 C 64.25 42.234375 64.171875 42.269531 64.097656 42.304688 C 63.046875 42.753906 61.5 42.6875 60.453125 42.273438 C 60.382812 42.246094 60.316406 42.214844 60.25 42.1875 C 60.167969 42.152344 60.085938 42.121094 60.003906 42.089844 C 59.734375 41.988281 59.511719 41.859375 59.28125 41.683594 C 59.183594 41.609375 59.183594 41.609375 59.074219 41.578125 C 58.914062 41.503906 58.804688 41.394531 58.675781 41.273438 C 58.652344 41.246094 58.625 41.222656 58.597656 41.199219 C 58.546875 41.148438 58.5 41.101562 58.449219 41.054688 C 58.398438 41.003906 58.34375 40.953125 58.292969 40.90625 C 57.578125 40.230469 57.125 39.300781 56.875 38.359375 C 56.851562 38.28125 56.851562 38.28125 56.828125 38.199219 C 56.621094 37.324219 56.648438 36.230469 56.917969 35.371094 C 56.925781 35.339844 56.9375 35.308594 56.945312 35.277344 C 57.386719 33.890625 58.320312 32.738281 59.582031 32.023438 C 59.605469 32.011719 59.632812 31.996094 59.660156 31.980469 C 61.515625 30.90625 64.160156 31.121094 65.800781 32.515625 Z M 65.800781 32.515625 "/>
<path style=" stroke:none;fill-rule:nonzero;fill:rgb(79.607844%,32.941177%,32.156864%);fill-opacity:1;" d="M 36.316406 14.003906 C 39.328125 14.003906 42.339844 14.003906 45.355469 14.011719 C 45.390625 14.011719 45.425781 14.015625 45.464844 14.015625 C 46.386719 14.015625 47.3125 14.019531 48.234375 14.023438 C 49.769531 14.027344 51.300781 14.03125 52.835938 14.035156 C 53.105469 14.035156 53.378906 14.039062 53.648438 14.039062 C 58.328125 14.050781 63.007812 14.0625 67.683594 14.074219 C 68.054688 14.074219 68.429688 14.074219 68.800781 14.078125 C 71.378906 14.082031 73.960938 14.089844 76.542969 14.09375 C 76.542969 15.023438 76.542969 15.949219 76.542969 16.90625 C 74.015625 16.90625 71.488281 16.902344 68.960938 16.898438 C 68.925781 16.898438 68.886719 16.898438 68.847656 16.898438 C 67.726562 16.894531 66.605469 16.890625 65.480469 16.886719 C 65.054688 16.886719 64.628906 16.886719 64.203125 16.882812 C 62.730469 16.878906 61.261719 16.875 59.789062 16.871094 C 59.746094 16.871094 59.699219 16.871094 59.652344 16.871094 C 59.46875 16.871094 59.285156 16.871094 59.105469 16.871094 C 58.964844 16.871094 58.828125 16.871094 58.691406 16.867188 C 58.644531 16.867188 58.601562 16.867188 58.554688 16.867188 C 57.078125 16.863281 55.605469 16.859375 54.128906 16.855469 C 52.554688 16.851562 50.980469 16.847656 49.410156 16.84375 C 49.234375 16.84375 49.0625 16.84375 48.886719 16.84375 C 48.84375 16.84375 48.800781 16.84375 48.757812 16.839844 C 48.164062 16.839844 47.570312 16.839844 46.976562 16.835938 C 45.984375 16.835938 44.988281 16.832031 43.996094 16.828125 C 43.941406 16.828125 43.941406 16.828125 43.882812 16.828125 C 41.359375 16.820312 38.839844 16.804688 36.316406 16.769531 C 36.316406 15.859375 36.316406 14.945312 36.316406 14.003906 Z M 36.316406 14.003906 "/>
<path style=" stroke:none;fill-rule:nonzero;fill:rgb(79.607844%,32.941177%,32.156864%);fill-opacity:1;" d="M 36.316406 18.824219 C 37.910156 18.820312 37.910156 18.820312 38.40625 18.820312 C 38.441406 18.820312 38.476562 18.820312 38.511719 18.820312 C 39.667969 18.824219 40.824219 18.824219 41.980469 18.828125 C 42.339844 18.832031 42.699219 18.832031 43.0625 18.832031 C 43.253906 18.832031 43.445312 18.835938 43.640625 18.835938 C 43.695312 18.835938 43.695312 18.835938 43.757812 18.835938 C 44.15625 18.835938 44.558594 18.835938 44.960938 18.839844 C 46.695312 18.84375 48.429688 18.847656 50.164062 18.855469 C 50.257812 18.855469 50.351562 18.855469 50.441406 18.855469 C 53.578125 18.863281 56.710938 18.871094 59.847656 18.878906 C 60.410156 18.878906 60.976562 18.878906 61.539062 18.882812 C 61.988281 18.882812 62.4375 18.882812 62.886719 18.882812 C 62.996094 18.882812 63.109375 18.882812 63.222656 18.882812 C 64.542969 18.886719 65.867188 18.890625 67.191406 18.890625 C 68.082031 18.894531 68.972656 18.894531 69.863281 18.898438 C 70.394531 18.898438 70.925781 18.898438 71.457031 18.898438 C 71.816406 18.902344 72.175781 18.902344 72.53125 18.902344 C 72.738281 18.902344 72.941406 18.902344 73.144531 18.902344 C 74.277344 18.90625 75.410156 18.925781 76.542969 18.957031 C 76.542969 19.867188 76.542969 20.78125 76.542969 21.722656 C 75.09375 21.722656 75.09375 21.722656 74.546875 21.722656 C 74.511719 21.722656 74.480469 21.722656 74.445312 21.722656 C 71.664062 21.722656 68.886719 21.722656 66.109375 21.714844 C 66.070312 21.714844 66.027344 21.714844 65.988281 21.714844 C 64.972656 21.710938 63.953125 21.707031 62.933594 21.703125 C 62.378906 21.703125 61.820312 21.699219 61.265625 21.699219 C 58.835938 21.691406 56.40625 21.683594 53.972656 21.675781 C 53.855469 21.675781 53.738281 21.675781 53.617188 21.675781 C 51.699219 21.671875 49.78125 21.664062 47.859375 21.65625 C 47.40625 21.65625 46.949219 21.652344 46.496094 21.652344 C 43.101562 21.640625 39.710938 21.617188 36.316406 21.585938 C 36.316406 20.675781 36.316406 19.761719 36.316406 18.824219 Z M 36.316406 18.824219 "/>
<path style=" stroke:none;fill-rule:nonzero;fill:rgb(79.607844%,32.941177%,32.156864%);fill-opacity:1;" d="M 36.273438 23.640625 C 38.429688 23.636719 40.582031 23.640625 42.738281 23.648438 C 42.816406 23.648438 42.816406 23.648438 42.898438 23.648438 C 43.523438 23.652344 44.144531 23.652344 44.765625 23.65625 C 46.019531 23.660156 47.269531 23.667969 48.523438 23.671875 C 48.625 23.671875 48.730469 23.671875 48.832031 23.671875 C 51.207031 23.679688 53.582031 23.6875 55.957031 23.695312 C 56.085938 23.695312 56.214844 23.695312 56.339844 23.695312 C 57.277344 23.699219 58.214844 23.703125 59.15625 23.703125 C 60.828125 23.707031 62.503906 23.710938 64.179688 23.71875 C 64.21875 23.71875 64.261719 23.71875 64.300781 23.71875 C 67.605469 23.726562 70.914062 23.742188 74.21875 23.761719 C 74.257812 23.761719 74.292969 23.761719 74.335938 23.761719 C 75.054688 23.765625 75.777344 23.769531 76.496094 23.773438 C 76.496094 24.6875 76.496094 25.597656 76.496094 26.539062 C 71.921875 26.542969 67.347656 26.53125 62.773438 26.523438 C 62.066406 26.519531 61.363281 26.519531 60.660156 26.515625 C 55.539062 26.503906 50.421875 26.492188 36.273438 26.449219 C 36.273438 25.523438 36.273438 24.59375 36.273438 23.640625 Z M 36.273438 23.640625 "/>
<path style=" stroke:none;fill-rule:nonzero;fill:rgb(99.607843%,78.039217%,0%);fill-opacity:1;" d="M 73.335938 32.492188 C 73.488281 32.621094 73.628906 32.757812 73.769531 32.898438 C 73.828125 32.957031 73.886719 33.015625 73.949219 33.074219 C 74.324219 33.4375 74.585938 33.851562 74.855469 34.300781 C 74.871094 34.328125 74.890625 34.355469 74.910156 34.382812 C 75.589844 35.457031 75.660156 37.082031 75.398438 38.28125 C 75.15625 39.304688 75.15625 39.304688 74.898438 39.5625 C 74.878906 39.613281 74.855469 39.664062 74.835938 39.714844 C 74.773438 39.859375 74.738281 39.910156 74.632812 40.007812 C 74.585938 40.082031 74.542969 40.15625 74.5 40.230469 C 74.308594 40.53125 74.085938 40.789062 73.832031 41.035156 C 73.800781 41.070312 73.769531 41.101562 73.734375 41.136719 C 73.65625 41.214844 73.65625 41.214844 73.566406 41.214844 C 73.550781 41.257812 73.539062 41.300781 73.523438 41.347656 C 72.355469 42.386719 70.84375 42.726562 69.320312 42.652344 C 68.980469 42.625 68.65625 42.5625 68.328125 42.460938 C 68.296875 42.453125 68.265625 42.445312 68.234375 42.433594 C 67.957031 42.351562 67.730469 42.277344 67.527344 42.0625 C 67.429688 41.996094 67.429688 41.996094 67.328125 41.941406 C 67.296875 41.921875 67.261719 41.902344 67.226562 41.882812 C 67.136719 41.839844 67.050781 41.8125 66.953125 41.792969 C 66.953125 41.761719 66.953125 41.734375 66.953125 41.703125 C 66.914062 41.699219 66.914062 41.699219 66.875 41.691406 C 66.589844 41.605469 66.316406 41.371094 66.152344 41.125 C 66.171875 41.105469 66.191406 41.085938 66.214844 41.066406 C 67.289062 40.03125 67.910156 38.59375 67.945312 37.101562 C 67.949219 36.617188 67.910156 36.152344 67.796875 35.683594 C 67.785156 35.636719 67.785156 35.636719 67.773438 35.589844 C 67.53125 34.59375 67.042969 33.761719 66.339844 33.03125 C 66.253906 32.933594 66.199219 32.855469 66.152344 32.738281 C 66.488281 32.445312 66.832031 32.203125 67.21875 31.980469 C 67.253906 31.960938 67.289062 31.9375 67.328125 31.917969 C 69.148438 30.929688 71.734375 31.1875 73.335938 32.492188 Z M 73.335938 32.492188 "/>
<path style=" stroke:none;fill-rule:nonzero;fill:rgb(97.647059%,59.607846%,0%);fill-opacity:1;" d="M 10.472656 13.285156 C 10.507812 13.285156 10.539062 13.285156 10.570312 13.285156 C 10.679688 13.285156 10.789062 13.285156 10.898438 13.285156 C 10.976562 13.285156 11.054688 13.285156 11.132812 13.285156 C 11.347656 13.285156 11.5625 13.285156 11.78125 13.285156 C 12.011719 13.285156 12.246094 13.285156 12.476562 13.28125 C 13.039062 13.28125 13.601562 13.28125 14.164062 13.28125 C 14.429688 13.28125 14.695312 13.28125 14.960938 13.28125 C 15.839844 13.28125 16.71875 13.277344 17.597656 13.277344 C 17.828125 13.277344 18.054688 13.277344 18.285156 13.277344 C 18.339844 13.277344 18.398438 13.277344 18.457031 13.277344 C 19.375 13.277344 20.296875 13.277344 21.214844 13.277344 C 22.160156 13.273438 23.101562 13.273438 24.046875 13.273438 C 24.578125 13.273438 25.105469 13.273438 25.636719 13.269531 C 26.089844 13.269531 26.539062 13.269531 26.992188 13.269531 C 27.222656 13.269531 27.453125 13.269531 27.683594 13.269531 C 27.894531 13.269531 28.105469 13.269531 28.316406 13.269531 C 28.390625 13.269531 28.46875 13.269531 28.542969 13.269531 C 29.117188 13.265625 29.621094 13.324219 30.058594 13.738281 C 30.382812 14.09375 30.433594 14.503906 30.429688 14.96875 C 30.429688 15.019531 30.429688 15.066406 30.429688 15.121094 C 30.429688 15.289062 30.429688 15.457031 30.425781 15.628906 C 30.425781 15.75 30.425781 15.871094 30.425781 15.992188 C 30.425781 16.25 30.425781 16.511719 30.425781 16.773438 C 30.425781 17.152344 30.425781 17.527344 30.425781 17.90625 C 30.425781 18.515625 30.421875 19.128906 30.421875 19.742188 C 30.421875 20.335938 30.421875 20.929688 30.417969 21.523438 C 30.417969 21.5625 30.417969 21.597656 30.417969 21.636719 C 30.417969 21.820312 30.417969 22.003906 30.417969 22.1875 C 30.417969 23.710938 30.414062 25.238281 30.414062 26.761719 C 30.398438 26.761719 30.382812 26.761719 30.367188 26.761719 C 30.367188 25.730469 30.367188 24.699219 30.367188 23.640625 C 30.207031 23.640625 30.046875 23.640625 29.878906 23.640625 C 29.878906 24.183594 29.878906 24.730469 29.878906 25.289062 C 29.699219 25.21875 29.546875 25.140625 29.378906 25.042969 C 29.332031 25.015625 29.285156 24.988281 29.238281 24.957031 C 29.125 24.886719 29.125 24.886719 29.082031 24.84375 C 29.078125 24.753906 29.074219 24.664062 29.074219 24.574219 C 29.074219 24.523438 29.078125 24.46875 29.078125 24.410156 C 29.078125 24.355469 29.078125 24.296875 29.078125 24.238281 C 29.078125 24.183594 29.078125 24.125 29.078125 24.066406 C 29.078125 23.921875 29.078125 23.78125 29.082031 23.640625 C 29.023438 23.644531 28.964844 23.644531 28.90625 23.648438 C 26.789062 23.757812 26.789062 23.757812 25.929688 23.015625 C 25.855469 22.957031 25.78125 22.898438 25.707031 22.835938 C 26.820312 22.835938 27.933594 22.835938 29.082031 22.835938 C 29.082031 22.1875 29.082031 21.542969 29.082031 20.875 C 27.4375 20.875 25.796875 20.875 24.109375 20.875 C 24.109375 21.210938 24.109375 21.550781 24.109375 21.898438 C 23.472656 21.589844 23.472656 21.589844 23.308594 21.453125 C 23.273438 21.316406 23.273438 21.316406 23.273438 21.152344 C 23.273438 21.105469 23.273438 21.105469 23.273438 21.0625 C 23.273438 20.960938 23.273438 20.863281 23.273438 20.765625 C 23.273438 20.695312 23.273438 20.628906 23.273438 20.558594 C 23.273438 20.378906 23.273438 20.199219 23.273438 20.019531 C 23.273438 19.796875 23.273438 19.578125 23.269531 19.359375 C 23.269531 19.1875 23.269531 19.015625 23.269531 18.847656 C 23.269531 18.800781 23.269531 18.800781 23.269531 18.75 C 23.269531 18.667969 23.269531 18.582031 23.269531 18.496094 C 23.277344 18.378906 23.277344 18.378906 23.21875 18.332031 C 23.152344 18.328125 23.085938 18.328125 23.019531 18.328125 C 22.976562 18.328125 22.933594 18.328125 22.890625 18.328125 C 22.84375 18.332031 22.796875 18.332031 22.746094 18.332031 C 22.640625 18.332031 22.539062 18.332031 22.433594 18.335938 C 22.378906 18.335938 22.324219 18.335938 22.269531 18.335938 C 21.945312 18.339844 21.621094 18.339844 21.296875 18.339844 C 20.953125 18.339844 20.609375 18.34375 20.269531 18.347656 C 19.96875 18.351562 19.664062 18.351562 19.363281 18.351562 C 19.25 18.351562 19.136719 18.351562 19.023438 18.355469 C 18.226562 18.371094 17.691406 18.234375 17.027344 17.78125 C 16.875 17.679688 16.714844 17.585938 16.550781 17.492188 C 16.527344 17.476562 16.5 17.457031 16.472656 17.441406 C 16.472656 17.425781 16.472656 17.410156 16.472656 17.394531 C 18.714844 17.394531 20.953125 17.394531 23.265625 17.394531 C 23.265625 16.054688 23.265625 14.714844 23.265625 13.335938 C 20.964844 13.335938 18.664062 13.335938 16.292969 13.335938 C 16.292969 14.632812 16.292969 15.925781 16.292969 17.261719 C 16.117188 17.214844 16.117188 17.214844 15.496094 16.859375 C 15.496094 15.695312 15.496094 14.535156 15.496094 13.335938 C 14 13.335938 12.507812 13.335938 10.964844 13.335938 C 10.964844 13.511719 10.964844 13.691406 10.964844 13.871094 C 10.945312 14.039062 10.945312 14.039062 10.921875 14.140625 C 10.800781 14.074219 10.679688 14.007812 10.558594 13.941406 C 10.488281 13.902344 10.417969 13.863281 10.34375 13.828125 C 10.238281 13.769531 10.175781 13.714844 10.132812 13.601562 C 10.105469 13.503906 10.105469 13.503906 10.078125 13.335938 C 10.210938 13.269531 10.328125 13.285156 10.472656 13.285156 Z M 10.472656 13.285156 "/>
<path style=" stroke:none;fill-rule:nonzero;fill:rgb(98.039216%,69.803923%,0%);fill-opacity:1;" d="M 24.0625 13.335938 C 26.292969 13.242188 26.292969 13.242188 27.164062 13.90625 C 27.402344 14.074219 27.652344 14.214844 27.90625 14.359375 C 28.039062 14.433594 28.171875 14.511719 28.304688 14.589844 C 28.347656 14.617188 28.390625 14.640625 28.4375 14.667969 C 28.652344 14.800781 28.867188 14.9375 29.082031 15.074219 C 29.082031 15.855469 29.082031 16.636719 29.082031 17.441406 C 27.425781 17.425781 25.769531 17.410156 24.0625 17.394531 C 24.0625 16.054688 24.0625 14.714844 24.0625 13.335938 Z M 24.0625 13.335938 "/>
<path style=" stroke:none;fill-rule:nonzero;fill:rgb(100%,78.039217%,0%);fill-opacity:1;" d="M 16.25 23.683594 C 18.550781 23.683594 20.851562 23.683594 23.21875 23.683594 C 23.21875 24.507812 23.21875 25.332031 23.21875 26.183594 C 20.917969 26.183594 18.621094 26.183594 16.25 26.183594 C 16.25 25.359375 16.25 24.535156 16.25 23.683594 Z M 16.25 23.683594 "/>
<path style=" stroke:none;fill-rule:nonzero;fill:rgb(100%,78.039217%,0%);fill-opacity:1;" d="M 24.019531 23.640625 C 25.6875 23.640625 27.359375 23.640625 29.082031 23.640625 C 29.082031 24.492188 29.082031 25.347656 29.082031 26.226562 C 27.410156 26.226562 25.738281 26.226562 24.019531 26.226562 C 24.019531 25.371094 24.019531 24.519531 24.019531 23.640625 Z M 24.019531 23.640625 "/>
<path style=" stroke:none;fill-rule:nonzero;fill:rgb(100%,78.039217%,0%);fill-opacity:1;" d="M 10.921875 23.59375 C 12.417969 23.59375 13.910156 23.59375 15.449219 23.59375 C 15.449219 24.449219 15.449219 25.300781 15.449219 26.183594 C 13.957031 26.183594 12.460938 26.183594 10.921875 26.183594 C 10.921875 25.328125 10.921875 24.472656 10.921875 23.59375 Z M 10.921875 23.59375 "/>
<path style=" stroke:none;fill-rule:nonzero;fill:rgb(74.117649%,29.411766%,27.843139%);fill-opacity:1;" d="M 39.292969 6.066406 C 41.511719 6.066406 41.511719 6.066406 41.96875 6.464844 C 42.183594 6.695312 42.304688 6.925781 42.398438 7.226562 C 42.421875 7.292969 42.421875 7.292969 42.445312 7.359375 C 42.457031 7.546875 42.457031 7.730469 42.457031 7.917969 C 42.460938 7.992188 42.460938 7.992188 42.460938 8.070312 C 42.464844 8.5625 42.351562 9.007812 42 9.367188 C 41.636719 9.667969 41.199219 9.746094 40.738281 9.738281 C 40.703125 9.738281 40.664062 9.734375 40.628906 9.734375 C 40.492188 9.734375 40.355469 9.734375 40.21875 9.730469 C 39.914062 9.730469 39.605469 9.726562 39.292969 9.722656 C 39.292969 8.515625 39.292969 7.308594 39.292969 6.066406 Z M 39.292969 6.066406 "/>
<path style=" stroke:none;fill-rule:nonzero;fill:rgb(74.117649%,29.411766%,27.843139%);fill-opacity:1;" d="M 19.445312 6.019531 C 19.742188 6.019531 20.042969 6.015625 20.347656 6.011719 C 20.441406 6.007812 20.535156 6.007812 20.628906 6.003906 C 21.214844 6 21.707031 6.042969 22.15625 6.46875 C 22.546875 6.867188 22.613281 7.363281 22.617188 7.902344 C 22.617188 7.945312 22.617188 7.984375 22.617188 8.027344 C 22.613281 8.523438 22.472656 8.953125 22.121094 9.3125 C 21.40625 9.917969 20.246094 9.679688 19.445312 9.679688 C 19.445312 8.472656 19.445312 7.265625 19.445312 6.019531 Z M 19.445312 6.019531 "/>
<path style=" stroke:none;fill-rule:nonzero;fill:rgb(98.039216%,69.803923%,0%);fill-opacity:1;" d="M 24.109375 18.242188 C 25.75 18.242188 27.390625 18.242188 29.082031 18.242188 C 29.082031 18.847656 29.082031 19.449219 29.082031 20.070312 C 28.070312 20.074219 27.058594 20.0625 26.050781 20.050781 C 25.792969 20.046875 25.53125 20.042969 25.273438 20.042969 C 24.886719 20.035156 24.496094 20.03125 24.109375 20.027344 C 24.109375 19.4375 24.109375 18.847656 24.109375 18.242188 Z M 24.109375 18.242188 "/>
<path style=" stroke:none;fill-rule:nonzero;fill:rgb(100%,78.039217%,0%);fill-opacity:1;" d="M 10.921875 20.828125 C 12.417969 20.828125 13.910156 20.828125 15.449219 20.828125 C 15.449219 21.476562 15.449219 22.125 15.449219 22.792969 C 13.957031 22.792969 12.460938 22.792969 10.921875 22.792969 C 10.921875 22.144531 10.921875 21.496094 10.921875 20.828125 Z M 10.921875 20.828125 "/>
<path style=" stroke:none;fill-rule:nonzero;fill:rgb(100%,78.039217%,0%);fill-opacity:1;" d="M 10.964844 14.183594 C 11.132812 14.25 11.269531 14.316406 11.421875 14.40625 C 11.46875 14.429688 11.515625 14.457031 11.5625 14.484375 C 11.609375 14.511719 11.660156 14.542969 11.710938 14.570312 C 11.761719 14.601562 11.8125 14.632812 11.863281 14.660156 C 12.257812 14.890625 12.644531 15.125 13.035156 15.359375 C 13.320312 15.53125 13.605469 15.703125 13.894531 15.867188 C 13.992188 15.925781 14.089844 15.980469 14.1875 16.039062 C 14.414062 16.171875 14.644531 16.300781 14.875 16.421875 C 14.917969 16.441406 14.960938 16.464844 15.003906 16.488281 C 15.082031 16.53125 15.160156 16.570312 15.238281 16.609375 C 15.347656 16.667969 15.417969 16.710938 15.496094 16.816406 C 15.527344 17.011719 15.515625 17.199219 15.496094 17.394531 C 13.984375 17.402344 12.476562 17.382812 10.964844 17.351562 C 10.964844 16.304688 10.964844 15.261719 10.964844 14.183594 Z M 10.964844 14.183594 "/>
<path style=" stroke:none;fill-rule:nonzero;fill:rgb(100%,78.039217%,0%);fill-opacity:1;" d="M 10.921875 18.152344 C 12.417969 18.152344 13.910156 18.152344 15.449219 18.152344 C 15.449219 18.773438 15.449219 19.390625 15.449219 20.027344 C 13.957031 20.027344 12.460938 20.027344 10.921875 20.027344 C 10.921875 19.410156 10.921875 18.789062 10.921875 18.152344 Z M 10.921875 18.152344 "/>
<path style=" stroke:none;fill-rule:nonzero;fill:rgb(98.431373%,69.803923%,0%);fill-opacity:1;" d="M 17.980469 18.289062 C 18.664062 18.285156 19.34375 18.285156 20.027344 18.28125 C 20.34375 18.28125 20.660156 18.28125 20.976562 18.28125 C 21.28125 18.28125 21.585938 18.277344 21.890625 18.277344 C 22.007812 18.277344 22.125 18.277344 22.242188 18.277344 C 22.402344 18.277344 22.566406 18.277344 22.730469 18.277344 C 22.777344 18.277344 22.828125 18.277344 22.875 18.277344 C 22.941406 18.277344 22.941406 18.277344 23.011719 18.277344 C 23.050781 18.277344 23.085938 18.277344 23.128906 18.277344 C 23.21875 18.289062 23.21875 18.289062 23.308594 18.375 C 23.320312 18.503906 23.320312 18.503906 23.320312 18.664062 C 23.320312 18.695312 23.320312 18.722656 23.320312 18.753906 C 23.320312 18.851562 23.316406 18.949219 23.316406 19.046875 C 23.316406 19.117188 23.316406 19.183594 23.316406 19.253906 C 23.316406 19.429688 23.316406 19.609375 23.316406 19.789062 C 23.3125 19.972656 23.3125 20.152344 23.3125 20.335938 C 23.3125 20.695312 23.308594 21.050781 23.308594 21.410156 C 23.140625 21.34375 22.988281 21.269531 22.832031 21.179688 C 22.78125 21.152344 22.734375 21.121094 22.679688 21.09375 C 22.628906 21.0625 22.574219 21.03125 22.519531 21 C 22.492188 20.984375 22.464844 20.96875 22.4375 20.953125 C 22.003906 20.703125 21.574219 20.445312 21.144531 20.1875 C 20.773438 19.960938 20.398438 19.742188 20.019531 19.523438 C 19.605469 19.285156 19.195312 19.039062 18.78125 18.792969 C 18.519531 18.636719 18.25 18.480469 17.980469 18.332031 C 17.980469 18.316406 17.980469 18.300781 17.980469 18.289062 Z M 17.980469 18.289062 "/>
<path style=" stroke:none;fill-rule:nonzero;fill:rgb(79.215688%,32.549021%,31.764707%);fill-opacity:1;" d="M 12.121094 5.976562 C 12.441406 5.972656 12.761719 5.972656 13.089844 5.96875 C 13.242188 5.964844 13.242188 5.964844 13.394531 5.964844 C 13.476562 5.964844 13.558594 5.964844 13.636719 5.964844 C 13.679688 5.964844 13.71875 5.960938 13.761719 5.960938 C 14.164062 5.960938 14.546875 6.050781 14.875 6.289062 C 15.136719 6.625 15.175781 6.9375 15.140625 7.359375 C 15.070312 7.613281 14.921875 7.804688 14.695312 7.9375 C 14.550781 8.007812 14.402344 8.0625 14.25 8.117188 C 14.652344 8.617188 15.066406 9.097656 15.492188 9.574219 C 15.539062 9.632812 15.539062 9.632812 15.539062 9.679688 C 14.8125 9.757812 14.8125 9.757812 14.5625 9.585938 C 14.46875 9.472656 14.386719 9.355469 14.308594 9.230469 C 14.222656 9.097656 14.121094 8.972656 14.023438 8.84375 C 13.929688 8.722656 13.835938 8.597656 13.742188 8.472656 C 13.660156 8.367188 13.578125 8.265625 13.496094 8.164062 C 13.246094 8.148438 13 8.132812 12.742188 8.117188 C 12.742188 8.632812 12.742188 9.148438 12.742188 9.679688 C 12.535156 9.679688 12.332031 9.679688 12.121094 9.679688 C 12.121094 8.457031 12.121094 7.234375 12.121094 5.976562 Z M 12.121094 5.976562 "/>
<path style=" stroke:none;fill-rule:nonzero;fill:rgb(74.117649%,29.411766%,27.843139%);fill-opacity:1;" d="M 35.519531 6.066406 C 35.847656 6.0625 36.171875 6.058594 36.511719 6.058594 C 36.664062 6.054688 36.664062 6.054688 36.820312 6.054688 C 36.90625 6.054688 36.988281 6.054688 37.070312 6.054688 C 37.132812 6.050781 37.132812 6.050781 37.195312 6.050781 C 37.617188 6.050781 37.980469 6.128906 38.285156 6.429688 C 38.515625 6.691406 38.519531 6.957031 38.511719 7.292969 C 38.476562 7.585938 38.363281 7.773438 38.140625 7.957031 C 37.9375 8.0625 37.789062 8.117188 37.558594 8.117188 C 37.777344 8.390625 38 8.660156 38.230469 8.921875 C 38.847656 9.644531 38.847656 9.644531 38.847656 9.722656 C 38.167969 9.8125 38.167969 9.8125 37.90625 9.621094 C 37.800781 9.5 37.710938 9.371094 37.621094 9.234375 C 37.53125 9.097656 37.429688 8.96875 37.328125 8.839844 C 37.164062 8.632812 37.007812 8.417969 36.851562 8.207031 C 36.601562 8.191406 36.351562 8.175781 36.09375 8.164062 C 36.09375 8.675781 36.09375 9.191406 36.09375 9.722656 C 35.90625 9.722656 35.714844 9.722656 35.519531 9.722656 C 35.519531 8.515625 35.519531 7.308594 35.519531 6.066406 Z M 35.519531 6.066406 "/>
<path style=" stroke:none;fill-rule:nonzero;fill:rgb(100%,78.039217%,0%);fill-opacity:1;" d="M 16.25 26.984375 C 18.550781 26.984375 20.851562 26.984375 23.21875 26.984375 C 23.21875 27.277344 23.21875 27.574219 23.21875 27.875 C 20.917969 27.875 18.621094 27.875 16.25 27.875 C 16.25 27.582031 16.25 27.289062 16.25 26.984375 Z M 16.25 26.984375 "/>
<path style=" stroke:none;fill-rule:nonzero;fill:rgb(74.117649%,29.411766%,27.843139%);fill-opacity:1;" d="M 32.941406 6.066406 C 33.148438 6.066406 33.351562 6.066406 33.566406 6.066406 C 33.785156 6.488281 33.964844 6.929688 34.144531 7.375 C 34.179688 7.453125 34.210938 7.535156 34.246094 7.617188 C 34.296875 7.742188 34.34375 7.863281 34.394531 7.988281 C 34.5 8.238281 34.605469 8.492188 34.710938 8.746094 C 34.746094 8.835938 34.78125 8.921875 34.820312 9.011719 C 34.855469 9.09375 34.886719 9.175781 34.921875 9.257812 C 34.941406 9.308594 34.964844 9.355469 34.984375 9.40625 C 35 9.449219 35.019531 9.492188 35.035156 9.535156 C 35.074219 9.632812 35.074219 9.632812 35.074219 9.722656 C 34.855469 9.722656 34.632812 9.722656 34.40625 9.722656 C 34.355469 9.589844 34.304688 9.460938 34.253906 9.328125 C 34.238281 9.289062 34.222656 9.253906 34.207031 9.214844 C 34.195312 9.179688 34.179688 9.140625 34.164062 9.105469 C 34.152344 9.070312 34.140625 9.039062 34.125 9.003906 C 34.097656 8.921875 34.097656 8.921875 34.097656 8.832031 C 33.554688 8.847656 33.011719 8.859375 32.453125 8.875 C 32.335938 9.15625 32.21875 9.433594 32.097656 9.722656 C 31.878906 9.722656 31.660156 9.722656 31.433594 9.722656 C 31.53125 9.40625 31.65625 9.101562 31.789062 8.796875 C 31.835938 8.6875 31.882812 8.578125 31.929688 8.46875 C 31.941406 8.441406 31.953125 8.410156 31.96875 8.378906 C 32.167969 7.917969 32.359375 7.453125 32.554688 6.992188 C 32.59375 6.898438 32.632812 6.808594 32.671875 6.714844 C 32.761719 6.5 32.851562 6.28125 32.941406 6.066406 Z M 32.941406 6.066406 "/>
<path style=" stroke:none;fill-rule:nonzero;fill:rgb(73.333335%,29.019609%,27.450982%);fill-opacity:1;" d="M 15.9375 5.976562 C 16.863281 5.976562 17.785156 5.976562 18.734375 5.976562 C 18.734375 6.167969 18.734375 6.359375 18.734375 6.558594 C 18.019531 6.558594 17.300781 6.558594 16.558594 6.558594 C 16.558594 6.867188 16.558594 7.175781 16.558594 7.492188 C 17.234375 7.492188 17.90625 7.492188 18.601562 7.492188 C 18.601562 7.683594 18.601562 7.875 18.601562 8.074219 C 17.929688 8.074219 17.253906 8.074219 16.558594 8.074219 C 16.558594 8.425781 16.558594 8.78125 16.558594 9.144531 C 17.308594 9.144531 18.054688 9.144531 18.824219 9.144531 C 18.824219 9.320312 18.824219 9.496094 18.824219 9.679688 C 17.871094 9.679688 16.917969 9.679688 15.9375 9.679688 C 15.9375 8.457031 15.9375 7.234375 15.9375 5.976562 Z M 15.9375 5.976562 "/>
<path style=" stroke:none;fill-rule:nonzero;fill:rgb(79.215688%,32.941177%,31.764707%);fill-opacity:1;" d="M 10.789062 6.109375 C 11.050781 6.304688 11.34375 6.550781 11.453125 6.867188 C 11.449219 6.964844 11.449219 6.964844 11.410156 7.046875 C 11.324219 7.09375 11.324219 7.09375 11.21875 7.125 C 11.183594 7.136719 11.148438 7.148438 11.113281 7.15625 C 11.011719 7.179688 11.011719 7.179688 10.832031 7.179688 C 10.769531 7.101562 10.769531 7.101562 10.707031 6.996094 C 10.570312 6.773438 10.421875 6.605469 10.167969 6.53125 C 9.832031 6.460938 9.609375 6.535156 9.3125 6.699219 C 9.066406 6.863281 8.976562 7.066406 8.910156 7.34375 C 8.832031 7.847656 8.832031 8.386719 9.109375 8.828125 C 9.273438 9.03125 9.460938 9.128906 9.71875 9.160156 C 10.027344 9.167969 10.3125 9.152344 10.554688 8.945312 C 10.722656 8.761719 10.804688 8.578125 10.878906 8.339844 C 10.972656 8.355469 11.066406 8.367188 11.160156 8.382812 C 11.214844 8.390625 11.265625 8.398438 11.320312 8.40625 C 11.453125 8.429688 11.453125 8.429688 11.542969 8.472656 C 11.476562 8.871094 11.28125 9.210938 10.964844 9.457031 C 10.5 9.753906 9.925781 9.800781 9.394531 9.691406 C 8.957031 9.558594 8.621094 9.320312 8.390625 8.921875 C 8.265625 8.648438 8.183594 8.375 8.167969 8.074219 C 8.167969 8.03125 8.164062 7.984375 8.164062 7.941406 C 8.144531 7.363281 8.269531 6.800781 8.664062 6.363281 C 9.203125 5.871094 10.148438 5.730469 10.789062 6.109375 Z M 10.789062 6.109375 "/>
<path style=" stroke:none;fill-rule:nonzero;fill:rgb(74.117649%,29.411766%,27.843139%);fill-opacity:1;" d="M 30.582031 6.242188 C 30.835938 6.457031 31.027344 6.699219 31.167969 7.003906 C 31.167969 7.03125 31.167969 7.0625 31.167969 7.09375 C 31.097656 7.113281 31.027344 7.136719 30.957031 7.160156 C 30.921875 7.171875 30.882812 7.183594 30.84375 7.195312 C 30.722656 7.226562 30.621094 7.230469 30.5 7.226562 C 30.476562 7.179688 30.457031 7.132812 30.433594 7.085938 C 30.300781 6.859375 30.148438 6.695312 29.898438 6.605469 C 29.570312 6.527344 29.292969 6.566406 29 6.738281 C 28.734375 6.933594 28.609375 7.269531 28.546875 7.582031 C 28.507812 8.039062 28.539062 8.523438 28.8125 8.910156 C 28.988281 9.105469 29.152344 9.175781 29.417969 9.207031 C 29.714844 9.21875 29.96875 9.21875 30.210938 9.03125 C 30.40625 8.839844 30.484375 8.644531 30.546875 8.386719 C 30.777344 8.410156 30.988281 8.449219 31.210938 8.519531 C 31.195312 8.878906 31.015625 9.183594 30.757812 9.429688 C 30.3125 9.777344 29.753906 9.804688 29.214844 9.769531 C 28.816406 9.707031 28.46875 9.507812 28.21875 9.1875 C 27.828125 8.613281 27.8125 7.925781 27.902344 7.25 C 28.007812 6.8125 28.265625 6.453125 28.636719 6.199219 C 29.242188 5.894531 30.003906 5.847656 30.582031 6.242188 Z M 30.582031 6.242188 "/>
<path style=" stroke:none;fill-rule:nonzero;fill:rgb(55.29412%,16.470589%,14.509805%);fill-opacity:1;" d="M 20.066406 6.558594 C 20.230469 6.550781 20.390625 6.546875 20.554688 6.546875 C 20.621094 6.542969 20.621094 6.542969 20.691406 6.539062 C 21.058594 6.535156 21.339844 6.613281 21.636719 6.835938 C 21.933594 7.144531 21.988281 7.480469 21.988281 7.898438 C 21.980469 8.308594 21.910156 8.636719 21.621094 8.9375 C 21.480469 9.050781 21.351562 9.09375 21.175781 9.144531 C 21.148438 9.152344 21.121094 9.160156 21.09375 9.167969 C 20.984375 9.191406 20.886719 9.195312 20.78125 9.195312 C 20.71875 9.195312 20.71875 9.195312 20.65625 9.195312 C 20.613281 9.195312 20.570312 9.195312 20.527344 9.195312 C 20.460938 9.195312 20.460938 9.195312 20.394531 9.195312 C 20.351562 9.195312 20.3125 9.195312 20.269531 9.195312 C 20.230469 9.195312 20.195312 9.195312 20.15625 9.195312 C 20.066406 9.1875 20.066406 9.1875 20.023438 9.144531 C 20.019531 9.054688 20.015625 8.96875 20.015625 8.878906 C 20.015625 8.824219 20.015625 8.765625 20.015625 8.710938 C 20.015625 8.648438 20.015625 8.585938 20.019531 8.523438 C 20.019531 8.492188 20.019531 8.464844 20.019531 8.433594 C 20.019531 7.804688 20.039062 7.183594 20.066406 6.558594 Z M 20.066406 6.558594 "/>
<path style=" stroke:none;fill-rule:nonzero;fill:rgb(55.29412%,16.470589%,14.509805%);fill-opacity:1;" d="M 39.914062 6.601562 C 41.167969 6.601562 41.167969 6.601562 41.5 6.894531 C 41.777344 7.1875 41.847656 7.519531 41.84375 7.910156 C 41.839844 7.949219 41.839844 7.984375 41.839844 8.023438 C 41.832031 8.308594 41.792969 8.539062 41.644531 8.785156 C 41.621094 8.828125 41.59375 8.871094 41.570312 8.914062 C 41.421875 9.050781 41.253906 9.113281 41.066406 9.1875 C 41.023438 9.210938 41.023438 9.210938 40.980469 9.234375 C 40.628906 9.234375 40.277344 9.234375 39.914062 9.234375 C 39.914062 8.363281 39.914062 7.496094 39.914062 6.601562 Z M 39.914062 6.601562 "/>
<path style=" stroke:none;fill-rule:nonzero;fill:rgb(100%,78.039217%,0%);fill-opacity:1;" d="M 24.019531 27.03125 C 25.6875 27.03125 27.359375 27.03125 29.082031 27.03125 C 29.082031 27.308594 29.082031 27.589844 29.082031 27.875 C 27.410156 27.875 25.738281 27.875 24.019531 27.875 C 24.019531 27.597656 24.019531 27.316406 24.019531 27.03125 Z M 24.019531 27.03125 "/>
<path style=" stroke:none;fill-rule:nonzero;fill:rgb(89.803922%,61.960787%,0%);fill-opacity:1;" d="M 26.0625 13.292969 C 26.464844 13.289062 26.867188 13.285156 27.269531 13.28125 C 27.457031 13.28125 27.644531 13.28125 27.828125 13.277344 C 28.011719 13.277344 28.191406 13.273438 28.371094 13.273438 C 28.441406 13.273438 28.507812 13.273438 28.578125 13.273438 C 29.15625 13.265625 29.605469 13.347656 30.058594 13.738281 C 30.027344 13.753906 30 13.765625 29.96875 13.78125 C 29.925781 13.761719 29.925781 13.761719 29.878906 13.738281 C 29.878906 14.328125 29.878906 14.914062 29.878906 15.523438 C 29.707031 15.453125 29.5625 15.382812 29.402344 15.292969 C 29.351562 15.261719 29.304688 15.234375 29.253906 15.207031 C 29.199219 15.175781 29.144531 15.144531 29.089844 15.113281 C 29.0625 15.097656 29.035156 15.082031 29.007812 15.0625 C 28.574219 14.816406 28.144531 14.558594 27.71875 14.300781 C 27.320312 14.058594 26.917969 13.824219 26.511719 13.59375 C 26.464844 13.566406 26.417969 13.539062 26.371094 13.511719 C 26.332031 13.488281 26.289062 13.464844 26.25 13.441406 C 26.148438 13.382812 26.148438 13.382812 26.0625 13.292969 Z M 26.0625 13.292969 "/>
<path style=" stroke:none;fill-rule:nonzero;fill:rgb(100%,78.431374%,0%);fill-opacity:1;" d="M 10.921875 26.984375 C 12.417969 26.984375 13.910156 26.984375 15.449219 26.984375 C 15.449219 27.277344 15.449219 27.574219 15.449219 27.875 C 13.957031 27.875 12.460938 27.875 10.921875 27.875 C 10.921875 27.582031 10.921875 27.289062 10.921875 26.984375 Z M 10.921875 26.984375 "/>
<path style=" stroke:none;fill-rule:nonzero;fill:rgb(73.725492%,29.019609%,27.450982%);fill-opacity:1;" d="M 24.464844 6.019531 C 25.472656 6.019531 26.484375 6.019531 27.527344 6.019531 C 27.527344 6.199219 27.527344 6.375 27.527344 6.558594 C 27.128906 6.558594 26.734375 6.558594 26.328125 6.558594 C 26.328125 7.601562 26.328125 8.648438 26.328125 9.722656 C 26.019531 9.703125 26.019531 9.703125 25.707031 9.679688 C 25.707031 8.664062 25.707031 7.648438 25.707031 6.601562 C 25.296875 6.601562 24.886719 6.601562 24.464844 6.601562 C 24.464844 6.410156 24.464844 6.21875 24.464844 6.019531 Z M 24.464844 6.019531 "/>
<path style=" stroke:none;fill-rule:nonzero;fill:rgb(99.607843%,78.039217%,0%);fill-opacity:1;" d="M 9.8125 13.558594 C 9.925781 13.578125 10.019531 13.597656 10.121094 13.648438 C 10.121094 14.871094 10.121094 16.09375 10.121094 17.351562 C 9.828125 17.351562 9.535156 17.351562 9.234375 17.351562 C 9.230469 16.949219 9.226562 16.546875 9.226562 16.148438 C 9.222656 15.960938 9.222656 15.777344 9.222656 15.589844 C 9.21875 15.410156 9.21875 15.230469 9.21875 15.050781 C 9.21875 14.980469 9.21875 14.914062 9.214844 14.84375 C 9.207031 14.164062 9.207031 14.164062 9.414062 13.871094 C 9.457031 13.855469 9.5 13.84375 9.546875 13.828125 C 9.621094 13.753906 9.695312 13.679688 9.765625 13.605469 C 9.78125 13.589844 9.796875 13.574219 9.8125 13.558594 Z M 9.8125 13.558594 "/>
<path style=" stroke:none;fill-rule:nonzero;fill:rgb(79.215688%,32.941177%,32.156864%);fill-opacity:1;" d="M 15.9375 7.359375 C 16.101562 7.425781 16.238281 7.488281 16.386719 7.574219 C 16.425781 7.597656 16.46875 7.621094 16.511719 7.648438 C 16.554688 7.671875 16.597656 7.695312 16.640625 7.722656 C 16.683594 7.746094 16.726562 7.773438 16.773438 7.796875 C 16.878906 7.859375 16.984375 7.921875 17.09375 7.984375 C 17.09375 8 17.09375 8.011719 17.09375 8.027344 C 16.917969 8.027344 16.742188 8.027344 16.558594 8.027344 C 16.558594 8.398438 16.558594 8.765625 16.558594 9.144531 C 17.308594 9.144531 18.054688 9.144531 18.824219 9.144531 C 18.824219 9.320312 18.824219 9.496094 18.824219 9.679688 C 17.871094 9.679688 16.917969 9.679688 15.9375 9.679688 C 15.9375 8.914062 15.9375 8.148438 15.9375 7.359375 Z M 15.9375 7.359375 "/>
<path style=" stroke:none;fill-rule:nonzero;fill:rgb(100%,78.039217%,0%);fill-opacity:1;" d="M 9.144531 23.59375 C 9.46875 23.59375 9.789062 23.59375 10.121094 23.59375 C 10.121094 24.449219 10.121094 25.300781 10.121094 26.183594 C 9.800781 26.183594 9.476562 26.183594 9.144531 26.183594 C 9.144531 25.328125 9.144531 24.472656 9.144531 23.59375 Z M 9.144531 23.59375 "/>
<path style=" stroke:none;fill-rule:nonzero;fill:rgb(73.725492%,29.019609%,27.843139%);fill-opacity:1;" d="M 23.308594 6.019531 C 23.515625 6.019531 23.71875 6.019531 23.929688 6.019531 C 23.929688 7.242188 23.929688 8.464844 23.929688 9.722656 C 23.726562 9.722656 23.519531 9.722656 23.308594 9.722656 C 23.308594 8.5 23.308594 7.28125 23.308594 6.019531 Z M 23.308594 6.019531 "/>
<path style=" stroke:none;fill-rule:nonzero;fill:rgb(100%,78.039217%,0%);fill-opacity:1;" d="M 9.144531 20.785156 C 9.46875 20.785156 9.789062 20.785156 10.121094 20.785156 C 10.121094 21.449219 10.121094 22.109375 10.121094 22.792969 C 9.800781 22.792969 9.476562 22.792969 9.144531 22.792969 C 9.144531 22.128906 9.144531 21.46875 9.144531 20.785156 Z M 9.144531 20.785156 "/>
<path style=" stroke:none;fill-rule:nonzero;fill:rgb(55.686277%,16.470589%,14.509805%);fill-opacity:1;" d="M 36.09375 6.601562 C 36.273438 6.597656 36.449219 6.59375 36.628906 6.59375 C 36.6875 6.59375 36.75 6.59375 36.808594 6.589844 C 37.199219 6.582031 37.476562 6.582031 37.800781 6.808594 C 37.902344 6.957031 37.898438 7.097656 37.871094 7.269531 C 37.800781 7.441406 37.714844 7.515625 37.546875 7.59375 C 37.285156 7.667969 37.007812 7.644531 36.738281 7.636719 C 36.675781 7.636719 36.613281 7.636719 36.550781 7.636719 C 36.398438 7.632812 36.246094 7.628906 36.09375 7.628906 C 36.09375 7.289062 36.09375 6.949219 36.09375 6.601562 Z M 36.09375 6.601562 "/>
<path style=" stroke:none;fill-rule:nonzero;fill:rgb(100%,78.039217%,0%);fill-opacity:1;" d="M 9.234375 18.152344 C 9.527344 18.152344 9.820312 18.152344 10.121094 18.152344 C 10.121094 18.773438 10.121094 19.390625 10.121094 20.027344 C 9.800781 20.027344 9.476562 20.027344 9.144531 20.027344 C 9.160156 19.953125 9.175781 19.878906 9.191406 19.804688 C 9.195312 19.675781 9.203125 19.550781 9.203125 19.421875 C 9.207031 19.382812 9.207031 19.347656 9.207031 19.3125 C 9.210938 19.195312 9.210938 19.078125 9.214844 18.964844 C 9.21875 18.886719 9.21875 18.808594 9.222656 18.730469 C 9.226562 18.539062 9.230469 18.34375 9.234375 18.152344 Z M 9.234375 18.152344 "/>
<path style=" stroke:none;fill-rule:nonzero;fill:rgb(89.411765%,53.333336%,3.137255%);fill-opacity:1;" d="M 26.0625 13.292969 C 26.464844 13.289062 26.867188 13.285156 27.269531 13.28125 C 27.457031 13.28125 27.644531 13.28125 27.828125 13.277344 C 28.011719 13.277344 28.191406 13.273438 28.371094 13.273438 C 28.441406 13.273438 28.507812 13.273438 28.578125 13.273438 C 29.15625 13.265625 29.605469 13.347656 30.058594 13.738281 C 30.027344 13.753906 30 13.765625 29.96875 13.78125 C 29.925781 13.761719 29.925781 13.761719 29.878906 13.738281 C 29.878906 14.328125 29.878906 14.914062 29.878906 15.523438 C 29.699219 15.449219 29.546875 15.371094 29.378906 15.273438 C 29.332031 15.246094 29.285156 15.21875 29.238281 15.191406 C 29.125 15.121094 29.125 15.121094 29.082031 15.074219 C 29.074219 15.003906 29.074219 14.933594 29.074219 14.859375 C 29.074219 14.816406 29.074219 14.769531 29.074219 14.722656 C 29.074219 14.675781 29.074219 14.628906 29.074219 14.578125 C 29.074219 14.535156 29.074219 14.488281 29.074219 14.441406 C 29.074219 14.070312 29.101562 13.710938 29.125 13.335938 C 28.113281 13.335938 27.101562 13.335938 26.0625 13.335938 C 26.0625 13.320312 26.0625 13.308594 26.0625 13.292969 Z M 26.0625 13.292969 "/>
<path style=" stroke:none;fill-rule:nonzero;fill:rgb(57.254905%,17.647059%,16.078432%);fill-opacity:1;" d="M 12.742188 6.558594 C 12.925781 6.550781 13.109375 6.550781 13.292969 6.546875 C 13.355469 6.546875 13.414062 6.542969 13.476562 6.542969 C 14.128906 6.527344 14.128906 6.527344 14.429688 6.734375 C 14.539062 6.902344 14.535156 6.984375 14.519531 7.179688 C 14.4375 7.371094 14.34375 7.449219 14.164062 7.539062 C 14.007812 7.554688 14.007812 7.554688 13.832031 7.550781 C 13.785156 7.550781 13.785156 7.550781 13.734375 7.550781 C 13.636719 7.550781 13.539062 7.546875 13.4375 7.546875 C 13.371094 7.546875 13.304688 7.546875 13.234375 7.542969 C 13.070312 7.542969 12.90625 7.539062 12.742188 7.539062 C 12.742188 7.214844 12.742188 6.890625 12.742188 6.558594 Z M 12.742188 6.558594 "/>
<path style=" stroke:none;fill-rule:nonzero;fill:rgb(98.431373%,69.803923%,0%);fill-opacity:1;" d="M 27.082031 23.640625 C 27.742188 23.640625 28.402344 23.640625 29.082031 23.640625 C 29.082031 24.035156 29.082031 24.433594 29.082031 24.84375 C 28.828125 24.699219 28.828125 24.699219 28.738281 24.648438 C 28.566406 24.550781 28.398438 24.453125 28.226562 24.355469 C 28.183594 24.332031 28.144531 24.308594 28.101562 24.285156 C 28.023438 24.238281 27.945312 24.191406 27.867188 24.148438 C 27.667969 24.035156 27.472656 23.921875 27.277344 23.804688 C 27.238281 23.78125 27.203125 23.761719 27.164062 23.738281 C 27.136719 23.71875 27.109375 23.703125 27.082031 23.683594 C 27.082031 23.667969 27.082031 23.65625 27.082031 23.640625 Z M 27.082031 23.640625 "/>
<path style=" stroke:none;fill-rule:nonzero;fill:rgb(98.431373%,70.19608%,0%);fill-opacity:1;" d="M 29.878906 20.875 C 30.039062 20.875 30.203125 20.875 30.367188 20.875 C 30.367188 21.523438 30.367188 22.167969 30.367188 22.835938 C 30.207031 22.835938 30.046875 22.835938 29.878906 22.835938 C 29.878906 22.1875 29.878906 21.542969 29.878906 20.875 Z M 29.878906 20.875 "/>
<path style=" stroke:none;fill-rule:nonzero;fill:rgb(55.686277%,16.470589%,14.509805%);fill-opacity:1;" d="M 33.253906 6.734375 C 33.351562 6.835938 33.378906 6.902344 33.425781 7.035156 C 33.445312 7.097656 33.445312 7.097656 33.46875 7.164062 C 33.484375 7.207031 33.5 7.253906 33.515625 7.296875 C 33.546875 7.386719 33.578125 7.472656 33.609375 7.558594 C 33.625 7.601562 33.640625 7.644531 33.65625 7.6875 C 33.695312 7.792969 33.734375 7.902344 33.777344 8.007812 C 33.832031 8.164062 33.832031 8.164062 33.832031 8.296875 C 33.449219 8.296875 33.070312 8.296875 32.675781 8.296875 C 32.753906 8.0625 32.832031 7.832031 32.917969 7.601562 C 32.949219 7.523438 32.949219 7.523438 32.980469 7.445312 C 33 7.394531 33.019531 7.34375 33.039062 7.289062 C 33.070312 7.210938 33.070312 7.210938 33.101562 7.128906 C 33.152344 6.996094 33.203125 6.867188 33.253906 6.734375 Z M 33.253906 6.734375 "/>
<path style=" stroke:none;fill-rule:nonzero;fill:rgb(98.431373%,69.803923%,0%);fill-opacity:1;" d="M 29.878906 18.242188 C 30.039062 18.242188 30.203125 18.242188 30.367188 18.242188 C 30.367188 18.847656 30.367188 19.449219 30.367188 20.070312 C 30.207031 20.070312 30.046875 20.070312 29.878906 20.070312 C 29.878906 19.46875 29.878906 18.863281 29.878906 18.242188 Z M 29.878906 18.242188 "/>
<path style=" stroke:none;fill-rule:nonzero;fill:rgb(89.411765%,61.176473%,0.392157%);fill-opacity:1;" d="M 29.878906 13.738281 C 30.101562 13.828125 30.152344 13.859375 30.277344 14.050781 C 30.367188 14.261719 30.378906 14.449219 30.375 14.675781 C 30.375 14.707031 30.375 14.742188 30.375 14.777344 C 30.375 14.882812 30.375 14.988281 30.375 15.09375 C 30.371094 15.164062 30.371094 15.234375 30.371094 15.308594 C 30.371094 15.484375 30.371094 15.660156 30.367188 15.835938 C 30.207031 15.746094 30.046875 15.65625 29.878906 15.566406 C 29.878906 14.964844 29.878906 14.359375 29.878906 13.738281 Z M 29.878906 13.738281 "/>
<path style=" stroke:none;fill-rule:nonzero;fill:rgb(98.039216%,69.803923%,0%);fill-opacity:1;" d="M 29.925781 15.609375 C 30.25 15.707031 30.25 15.707031 30.367188 15.835938 C 30.382812 15.960938 30.386719 16.070312 30.386719 16.199219 C 30.386719 16.234375 30.382812 16.269531 30.382812 16.304688 C 30.382812 16.417969 30.382812 16.53125 30.378906 16.644531 C 30.378906 16.722656 30.378906 16.796875 30.375 16.875 C 30.375 17.0625 30.371094 17.25 30.367188 17.441406 C 30.207031 17.441406 30.046875 17.441406 29.878906 17.441406 C 29.878906 17.222656 29.878906 17.003906 29.878906 16.789062 C 29.875 16.714844 29.875 16.640625 29.875 16.566406 C 29.875 16.460938 29.875 16.351562 29.875 16.246094 C 29.875 16.214844 29.875 16.179688 29.875 16.148438 C 29.875 15.964844 29.886719 15.792969 29.925781 15.609375 Z M 29.925781 15.609375 "/>
<path style=" stroke:none;fill-rule:nonzero;fill:rgb(100%,78.039217%,0%);fill-opacity:1;" d="M 24.109375 21.898438 C 24.886719 22.347656 24.886719 22.347656 25.660156 22.792969 C 25.660156 22.808594 25.660156 22.820312 25.660156 22.835938 C 25.148438 22.835938 24.636719 22.835938 24.109375 22.835938 C 24.109375 22.527344 24.109375 22.21875 24.109375 21.898438 Z M 24.109375 21.898438 "/>
<path style=" stroke:none;fill-rule:nonzero;fill:rgb(95.294118%,65.490198%,20%);fill-opacity:1;" d="M 29.65625 27.789062 C 29.367188 27.945312 29.105469 27.941406 28.78125 27.9375 C 28.695312 27.9375 28.695312 27.9375 28.609375 27.9375 C 28.453125 27.9375 28.292969 27.9375 28.136719 27.9375 C 27.964844 27.9375 27.796875 27.9375 27.625 27.9375 C 27.328125 27.9375 27.035156 27.9375 26.742188 27.9375 C 26.3125 27.933594 25.886719 27.933594 25.460938 27.933594 C 24.769531 27.933594 24.078125 27.933594 23.386719 27.929688 C 22.714844 27.929688 22.042969 27.929688 21.371094 27.929688 C 21.328125 27.929688 21.289062 27.929688 21.246094 27.929688 C 21.035156 27.929688 20.828125 27.929688 20.621094 27.929688 C 18.898438 27.925781 17.175781 27.925781 15.449219 27.921875 C 15.449219 27.90625 15.449219 27.890625 15.449219 27.875 C 15.480469 27.875 15.507812 27.875 15.539062 27.875 C 17.261719 27.875 18.988281 27.867188 20.714844 27.863281 C 20.921875 27.863281 21.128906 27.863281 21.335938 27.863281 C 21.375 27.863281 21.417969 27.863281 21.460938 27.863281 C 22.128906 27.859375 22.796875 27.859375 23.464844 27.859375 C 24.148438 27.855469 24.832031 27.855469 25.519531 27.851562 C 25.941406 27.851562 26.363281 27.851562 26.785156 27.851562 C 27.078125 27.847656 27.367188 27.847656 27.65625 27.847656 C 27.824219 27.847656 27.992188 27.847656 28.15625 27.847656 C 28.339844 27.847656 28.519531 27.84375 28.703125 27.84375 C 28.753906 27.84375 28.808594 27.84375 28.863281 27.84375 C 29.113281 27.84375 29.4375 27.714844 29.65625 27.789062 Z M 29.65625 27.789062 "/>
<path style=" stroke:none;fill-rule:nonzero;fill:rgb(55.29412%,33.725491%,38.039216%);fill-opacity:1;" d="M 9.058594 19.625 C 9.085938 19.625 9.117188 19.625 9.144531 19.625 C 9.160156 22.011719 9.175781 24.394531 9.191406 26.851562 C 9.175781 26.820312 9.160156 26.792969 9.144531 26.761719 C 9.117188 26.761719 9.085938 26.761719 9.058594 26.761719 C 9.058594 24.40625 9.058594 22.050781 9.058594 19.625 Z M 9.058594 19.625 "/>
<path style=" stroke:none;fill-rule:nonzero;fill:rgb(98.039216%,59.607846%,0%);fill-opacity:1;" d="M 10.078125 13.335938 C 10.371094 13.335938 10.664062 13.335938 10.964844 13.335938 C 10.972656 13.875 10.972656 13.875 10.921875 14.140625 C 10.800781 14.074219 10.679688 14.007812 10.558594 13.941406 C 10.488281 13.902344 10.417969 13.863281 10.34375 13.828125 C 10.273438 13.789062 10.273438 13.789062 10.167969 13.691406 C 10.136719 13.574219 10.109375 13.457031 10.078125 13.335938 Z M 10.078125 13.335938 "/>
<path style=" stroke:none;fill-rule:nonzero;fill:rgb(99.215686%,76.078433%,2.352941%);fill-opacity:1;" d="M 9.277344 26.984375 C 9.558594 26.984375 9.835938 26.984375 10.121094 26.984375 C 10.121094 27.234375 10.121094 27.484375 10.121094 27.742188 C 9.753906 27.679688 9.59375 27.542969 9.375 27.253906 C 9.324219 27.164062 9.324219 27.164062 9.277344 26.984375 Z M 9.277344 26.984375 "/>
<path style=" stroke:none;fill-rule:nonzero;fill:rgb(73.725492%,29.019609%,27.843139%);fill-opacity:1;" d="M 12.785156 5.976562 C 12.96875 5.972656 13.148438 5.972656 13.332031 5.96875 C 13.394531 5.96875 13.453125 5.96875 13.515625 5.964844 C 13.882812 5.960938 14.21875 5.96875 14.5625 6.109375 C 14.589844 6.121094 14.621094 6.132812 14.648438 6.144531 C 14.875 6.253906 14.996094 6.421875 15.09375 6.644531 C 15.113281 6.71875 15.128906 6.792969 15.140625 6.867188 C 15.050781 6.820312 14.964844 6.769531 14.875 6.71875 C 14.847656 6.703125 14.820312 6.6875 14.792969 6.671875 C 14.636719 6.582031 14.488281 6.492188 14.34375 6.390625 C 13.835938 6.042969 13.394531 6 12.785156 6.019531 C 12.785156 6.007812 12.785156 5.992188 12.785156 5.976562 Z M 12.785156 5.976562 "/>
<path style=" stroke:none;fill-rule:nonzero;fill:rgb(94.509804%,54.509807%,29.019609%);fill-opacity:1;" d="M 73.210938 41.480469 C 73.253906 41.503906 73.253906 41.503906 73.300781 41.527344 C 72.660156 41.960938 72.011719 42.3125 71.257812 42.507812 C 71.203125 42.519531 71.148438 42.535156 71.09375 42.550781 C 69.949219 42.796875 68.78125 42.667969 67.707031 42.238281 C 67.855469 42.1875 67.945312 42.203125 68.09375 42.246094 C 68.136719 42.257812 68.175781 42.269531 68.21875 42.285156 C 68.257812 42.296875 68.300781 42.308594 68.34375 42.324219 C 68.425781 42.347656 68.507812 42.371094 68.59375 42.398438 C 68.628906 42.410156 68.664062 42.421875 68.703125 42.433594 C 68.941406 42.496094 69.175781 42.515625 69.421875 42.519531 C 69.472656 42.519531 69.472656 42.519531 69.523438 42.519531 C 70.894531 42.539062 72.066406 42.277344 73.210938 41.480469 Z M 73.210938 41.480469 "/>
<path style=" stroke:none;fill-rule:nonzero;fill:rgb(100%,78.039217%,0%);fill-opacity:1;" d="M 29.878906 25.335938 C 29.988281 25.378906 29.988281 25.378906 30.101562 25.421875 C 30.148438 25.441406 30.199219 25.460938 30.25 25.480469 C 30.402344 25.636719 30.382812 25.710938 30.382812 25.925781 C 30.378906 26.027344 30.375 26.125 30.367188 26.226562 C 30.207031 26.226562 30.046875 26.226562 29.878906 26.226562 C 29.878906 25.933594 29.878906 25.636719 29.878906 25.335938 Z M 29.878906 25.335938 "/>
<path style=" stroke:none;fill-rule:nonzero;fill:rgb(46.666667%,22.352941%,30.19608%);fill-opacity:1;" d="M 30.414062 23.683594 C 30.425781 23.683594 30.441406 23.683594 30.457031 23.683594 C 30.460938 24.117188 30.464844 24.546875 30.464844 24.980469 C 30.464844 25.179688 30.46875 25.378906 30.46875 25.578125 C 30.472656 25.773438 30.472656 25.96875 30.472656 26.160156 C 30.472656 26.234375 30.472656 26.308594 30.476562 26.382812 C 30.476562 26.484375 30.476562 26.589844 30.476562 26.691406 C 30.476562 26.75 30.476562 26.808594 30.476562 26.871094 C 30.453125 27.054688 30.390625 27.148438 30.277344 27.296875 C 30.25 27.34375 30.222656 27.386719 30.191406 27.433594 C 30.0625 27.617188 29.921875 27.804688 29.703125 27.875 C 29.558594 27.882812 29.558594 27.882812 29.433594 27.875 C 29.5 27.832031 29.5 27.832031 29.570312 27.789062 C 29.964844 27.515625 30.238281 27.238281 30.367188 26.761719 C 30.394531 26.523438 30.394531 26.285156 30.394531 26.046875 C 30.394531 25.976562 30.394531 25.910156 30.398438 25.839844 C 30.398438 25.660156 30.398438 25.484375 30.402344 25.304688 C 30.402344 25.121094 30.402344 24.9375 30.40625 24.757812 C 30.410156 24.398438 30.410156 24.042969 30.414062 23.683594 Z M 30.414062 23.683594 "/>
<path style=" stroke:none;fill-rule:nonzero;fill:rgb(76.47059%,29.019609%,18.82353%);fill-opacity:1;" d="M 61.003906 42.460938 C 61.054688 42.464844 61.105469 42.46875 61.160156 42.472656 C 61.980469 42.519531 62.800781 42.527344 63.621094 42.460938 C 63.015625 42.871094 61.816406 42.671875 61.140625 42.535156 C 61.09375 42.527344 61.046875 42.515625 61.003906 42.507812 C 61.003906 42.492188 61.003906 42.476562 61.003906 42.460938 Z M 61.003906 42.460938 "/>
<path style=" stroke:none;fill-rule:nonzero;fill:rgb(78.039217%,29.411766%,18.431373%);fill-opacity:1;" d="M 65.976562 41.167969 C 66.019531 41.183594 66.0625 41.199219 66.109375 41.214844 C 65.945312 41.390625 65.789062 41.503906 65.574219 41.613281 C 65.546875 41.613281 65.515625 41.613281 65.484375 41.613281 C 65.484375 41.644531 65.484375 41.671875 65.484375 41.703125 C 65.042969 42.042969 64.386719 42.347656 63.84375 42.460938 C 63.785156 42.449219 63.722656 42.433594 63.664062 42.417969 C 63.710938 42.398438 63.710938 42.398438 63.757812 42.382812 C 64.953125 41.929688 64.953125 41.929688 65.976562 41.167969 Z M 65.976562 41.167969 "/>
<path style=" stroke:none;fill-rule:nonzero;fill:rgb(92.54902%,50.588238%,32.156864%);fill-opacity:1;" d="M 66.109375 41.167969 C 66.21875 41.210938 66.21875 41.210938 66.328125 41.257812 C 66.328125 41.289062 66.328125 41.316406 66.328125 41.347656 C 66.351562 41.355469 66.375 41.367188 66.398438 41.378906 C 66.523438 41.445312 66.632812 41.523438 66.742188 41.609375 C 66.824219 41.667969 66.824219 41.667969 66.953125 41.703125 C 66.953125 41.734375 66.953125 41.761719 66.953125 41.792969 C 66.984375 41.796875 67.015625 41.800781 67.046875 41.808594 C 67.191406 41.839844 67.300781 41.898438 67.429688 41.96875 C 67.472656 41.992188 67.515625 42.015625 67.558594 42.039062 C 67.660156 42.105469 67.660156 42.105469 67.707031 42.195312 C 67.160156 42.027344 66.433594 41.660156 66.109375 41.167969 Z M 66.109375 41.167969 "/>
<path style=" stroke:none;fill-rule:nonzero;fill:rgb(51.372552%,26.666668%,33.333334%);fill-opacity:1;" d="M 30.277344 27.03125 C 30.324219 27.042969 30.367188 27.058594 30.414062 27.074219 C 30 27.777344 30 27.777344 29.703125 27.875 C 29.558594 27.882812 29.558594 27.882812 29.433594 27.875 C 29.480469 27.847656 29.523438 27.816406 29.570312 27.789062 C 29.867188 27.582031 30.125 27.363281 30.277344 27.03125 Z M 30.277344 27.03125 "/>
<path style=" stroke:none;fill-rule:nonzero;fill:rgb(51.764709%,23.529412%,29.019609%);fill-opacity:1;" d="M 9.191406 26.941406 C 9.355469 27.144531 9.355469 27.144531 9.421875 27.25 C 9.597656 27.511719 9.804688 27.640625 10.078125 27.789062 C 10.121094 27.816406 10.167969 27.847656 10.210938 27.875 C 9.902344 27.898438 9.714844 27.714844 9.488281 27.523438 C 9.21875 27.277344 9.21875 27.277344 9.191406 27.074219 C 9.191406 27.03125 9.191406 26.984375 9.191406 26.941406 Z M 9.191406 26.941406 "/>
<path style=" stroke:none;fill-rule:nonzero;fill:rgb(99.215686%,75.294119%,3.529412%);fill-opacity:1;" d="M 29.878906 27.03125 C 29.996094 27.03125 30.113281 27.03125 30.234375 27.03125 C 30.210938 27.179688 30.1875 27.257812 30.101562 27.386719 C 29.984375 27.394531 29.984375 27.394531 29.878906 27.386719 C 29.878906 27.269531 29.878906 27.152344 29.878906 27.03125 Z M 29.878906 27.03125 "/>
<path style=" stroke:none;fill-rule:nonzero;fill:rgb(97.647059%,67.450982%,1.568628%);fill-opacity:1;" d="M 10.167969 13.425781 C 10.167969 13.515625 10.167969 13.601562 10.167969 13.691406 C 10.140625 13.675781 10.117188 13.660156 10.09375 13.644531 C 9.957031 13.589844 9.902344 13.597656 9.765625 13.648438 C 9.691406 13.722656 9.617188 13.796875 9.546875 13.871094 C 9.515625 13.871094 9.488281 13.871094 9.457031 13.871094 C 9.519531 13.71875 9.589844 13.644531 9.722656 13.550781 C 9.769531 13.515625 9.769531 13.515625 9.816406 13.480469 C 9.957031 13.386719 10.007812 13.378906 10.167969 13.425781 Z M 10.167969 13.425781 "/>
<path style=" stroke:none;fill-rule:nonzero;fill:rgb(50.980395%,25.490198%,31.37255%);fill-opacity:1;" d="M 9.988281 13.246094 C 10.09375 13.246094 10.195312 13.246094 10.300781 13.246094 C 10.195312 13.316406 10.089844 13.378906 9.976562 13.4375 C 9.792969 13.542969 9.625 13.65625 9.457031 13.78125 C 9.480469 13.6875 9.5 13.605469 9.546875 13.515625 C 9.621094 13.484375 9.695312 13.457031 9.765625 13.425781 C 9.78125 13.394531 9.796875 13.367188 9.8125 13.335938 C 9.871094 13.335938 9.929688 13.335938 9.988281 13.335938 C 9.988281 13.308594 9.988281 13.277344 9.988281 13.246094 Z M 9.988281 13.246094 "/>
<path style=" stroke:none;fill-rule:nonzero;fill:rgb(96.470588%,57.254905%,27.058825%);fill-opacity:1;" d="M 67.039062 41.792969 C 67.605469 41.996094 67.605469 41.996094 67.707031 42.195312 C 67.492188 42.128906 67.273438 42.054688 67.085938 41.925781 C 67.070312 41.882812 67.054688 41.839844 67.039062 41.792969 Z M 67.039062 41.792969 "/>
<path style=" stroke:none;fill-rule:nonzero;fill:rgb(51.372552%,21.176471%,25.098041%);fill-opacity:1;" d="M 30.144531 27.386719 C 30.144531 27.519531 30.144531 27.519531 30.09375 27.589844 C 29.800781 27.875 29.800781 27.875 29.558594 27.882812 C 29.515625 27.878906 29.476562 27.878906 29.433594 27.875 C 29.570312 27.789062 29.570312 27.789062 29.714844 27.730469 C 29.902344 27.65625 30.011719 27.535156 30.144531 27.386719 Z M 30.144531 27.386719 "/>
<path style=" stroke:none;fill-rule:nonzero;fill:rgb(96.862745%,68.627453%,10.980392%);fill-opacity:1;" d="M 66.507812 32.425781 C 66.535156 32.441406 66.566406 32.457031 66.597656 32.472656 C 66.464844 32.605469 66.328125 32.738281 66.195312 32.871094 C 66.195312 32.695312 66.195312 32.695312 66.265625 32.617188 C 66.292969 32.59375 66.324219 32.574219 66.351562 32.550781 C 66.378906 32.527344 66.410156 32.503906 66.4375 32.480469 C 66.472656 32.453125 66.472656 32.453125 66.507812 32.425781 Z M 66.507812 32.425781 "/>
<path style=" stroke:none;fill-rule:nonzero;fill:rgb(98.823529%,66.274512%,12.54902%);fill-opacity:1;" d="M 29.878906 27.386719 C 29.9375 27.402344 29.996094 27.414062 30.058594 27.429688 C 29.882812 27.585938 29.882812 27.585938 29.703125 27.742188 C 29.6875 27.699219 29.671875 27.65625 29.65625 27.609375 C 29.703125 27.609375 29.746094 27.609375 29.789062 27.609375 C 29.820312 27.535156 29.847656 27.460938 29.878906 27.386719 Z M 29.878906 27.386719 "/>
<path style=" stroke:none;fill-rule:nonzero;fill:rgb(79.607844%,32.941177%,32.156864%);fill-opacity:1;" d="M 19.445312 9.410156 C 19.621094 9.5 19.621094 9.5 19.800781 9.589844 C 19.800781 9.605469 19.800781 9.617188 19.800781 9.632812 C 19.683594 9.632812 19.566406 9.632812 19.445312 9.632812 C 19.445312 9.5625 19.445312 9.488281 19.445312 9.410156 Z M 19.445312 9.410156 "/>
<path style=" stroke:none;fill-rule:nonzero;fill:rgb(96.470588%,66.666669%,15.686275%);fill-opacity:1;" d="M 9.902344 13.46875 C 9.902344 13.5 9.902344 13.527344 9.902344 13.558594 C 9.8125 13.621094 9.722656 13.679688 9.632812 13.738281 C 9.589844 13.804688 9.589844 13.804688 9.546875 13.871094 C 9.515625 13.871094 9.488281 13.871094 9.457031 13.871094 C 9.523438 13.691406 9.699219 13.46875 9.902344 13.46875 Z M 9.902344 13.46875 "/>
<path style=" stroke:none;fill-rule:nonzero;fill:rgb(52.549022%,29.803923%,35.294119%);fill-opacity:1;" d="M 9.191406 26.941406 C 9.296875 27.070312 9.390625 27.1875 9.457031 27.339844 C 9.375 27.332031 9.375 27.332031 9.277344 27.296875 C 9.1875 27.164062 9.191406 27.105469 9.191406 26.941406 Z M 9.191406 26.941406 "/>
<path style=" stroke:none;fill-rule:nonzero;fill:rgb(98.823529%,72.549021%,7.450981%);fill-opacity:1;" d="M 9.632812 13.691406 C 9.664062 13.707031 9.691406 13.722656 9.722656 13.738281 C 9.679688 13.765625 9.636719 13.796875 9.589844 13.828125 C 9.605469 13.78125 9.621094 13.738281 9.632812 13.691406 Z M 9.414062 13.871094 C 9.457031 13.886719 9.5 13.902344 9.546875 13.917969 C 9.488281 13.976562 9.429688 14.035156 9.367188 14.09375 C 9.351562 14.066406 9.339844 14.035156 9.324219 14.003906 C 9.351562 13.960938 9.382812 13.917969 9.414062 13.871094 Z M 9.414062 13.871094 "/>
<path style=" stroke:none;fill-rule:nonzero;fill:rgb(54.11765%,28.235295%,28.235295%);fill-opacity:1;" d="M 30.234375 14.003906 C 30.277344 14.003906 30.324219 14.003906 30.367188 14.003906 C 30.417969 14.160156 30.414062 14.289062 30.414062 14.453125 C 30.316406 14.304688 30.277344 14.175781 30.234375 14.003906 Z M 30.234375 14.003906 "/>
</g>
</svg>
